<svg width="8" height="8" viewBox="0 0 8 8" fill="none" xmlns="http://www.w3.org/2000/svg">
<path d="M1.57999 7.70001C1.57999 7.61334 1.56332 7.57001 1.52999 7.57001L1.29999 7.68001C1.29999 7.63334 1.27332 7.60001 1.21999 7.58001L1.13999 7.57001C1.08666 7.57001 1.01999 7.59334 0.93999 7.64001C0.926657 7.60668 0.90999 7.57334 0.88999 7.54001C0.86999 7.50668 0.853324 7.47668 0.83999 7.45001C0.753324 7.28334 0.666657 7.10001 0.57999 6.90001C0.49999 6.69334 0.423324 6.49668 0.34999 6.31001C0.283324 6.12334 0.22999 5.97668 0.18999 5.87001C0.163324 5.78334 0.133324 5.65334 0.0999903 5.48001C0.0666569 5.30668 0.0333236 5.08668 -9.73791e-06 4.82001C0.0733236 4.86668 0.12999 4.89001 0.16999 4.89001C0.216657 4.89001 0.25999 4.82001 0.29999 4.68001C0.31999 4.70668 0.356657 4.72001 0.40999 4.72001C0.44999 4.72001 0.47999 4.70668 0.49999 4.68001L0.65999 4.44001L0.83999 4.50001H0.84999C0.863324 4.50001 0.876657 4.49334 0.88999 4.48001C0.903324 4.46668 0.923324 4.45334 0.94999 4.44001C1.00332 4.40668 1.04332 4.39001 1.06999 4.39001L1.09999 4.40001C1.26666 4.48001 1.37332 4.62668 1.41999 4.84001C1.53999 5.34668 1.65999 5.60001 1.77999 5.60001C1.89999 5.60001 2.03999 5.47334 2.19999 5.22001C2.27999 5.09334 2.35999 4.94668 2.43999 4.78001C2.52666 4.61334 2.61332 4.42668 2.69999 4.22001C2.71332 4.30001 2.72666 4.34001 2.73999 4.34001C2.77332 4.34001 2.82999 4.25668 2.90999 4.09001C2.99666 3.92334 3.13332 3.69334 3.31999 3.40001C3.42666 3.22001 3.55999 3.01668 3.71999 2.79001C3.88666 2.56334 4.06332 2.33001 4.24999 2.09001C4.43666 1.85001 4.61666 1.62334 4.78999 1.41001C4.96999 1.19668 5.12999 1.01334 5.26999 0.860009C5.40999 0.706676 5.51332 0.606676 5.57999 0.56001C5.83332 0.386676 6.03332 0.220009 6.17999 0.0600095C6.17332 0.106676 6.16332 0.150009 6.14999 0.19001C6.14332 0.223343 6.13999 0.246676 6.13999 0.260009C6.13999 0.286676 6.15332 0.300009 6.17999 0.300009L6.45999 0.160009V0.200009C6.45999 0.253343 6.47332 0.28001 6.49999 0.28001C6.51999 0.28001 6.55999 0.25001 6.61999 0.19001C6.67999 0.13001 6.71332 0.0866762 6.71999 0.0600095L6.69999 0.200009L7.03999 9.65595e-06L6.95999 0.18001C7.06666 0.106676 7.14332 0.0700094 7.18999 0.0700094C7.21666 0.0700094 7.23666 0.086676 7.24999 0.120009C7.26332 0.146676 7.26999 0.173343 7.26999 0.200009C7.26999 0.240009 7.25332 0.286676 7.21999 0.340009C7.18666 0.393343 7.14332 0.456676 7.08999 0.530009C7.04999 0.583343 6.98332 0.663343 6.88999 0.770009C6.80332 0.87001 6.66999 1.02001 6.48999 1.22001C6.30999 1.41334 6.06999 1.68334 5.76999 2.03001C5.68999 2.11668 5.56666 2.27001 5.39999 2.49001C5.23332 2.70334 5.04332 2.95334 4.82999 3.24001C4.62332 3.52001 4.41666 3.80334 4.20999 4.09001C4.00332 4.37668 3.81999 4.63668 3.65999 4.87001C3.49999 5.09668 3.38666 5.26668 3.31999 5.38001L2.69999 6.43001C2.56666 6.65668 2.45666 6.84334 2.36999 6.99001C2.28332 7.13001 2.21666 7.22668 2.16999 7.28001C2.06999 7.40001 1.95999 7.50668 1.83999 7.60001L1.74999 7.55001L1.66999 7.60001L1.57999 7.70001Z" fill="white"/>
</svg>
